<svg xmlns="http://www.w3.org/2000/svg" fill="none" viewBox="0 0 234 64" height="64" width="234">
<path fill="#E40B2C" d="M31.0674 63.5502C31.0674 63.5146 31.0674 63.479 31.0674 63.4434C31.5996 63.1881 32.1324 63.1954 32.6665 63.4373C32.6671 63.4747 32.6683 63.5128 32.6689 63.5502C32.1349 63.5502 31.6008 63.5502 31.0674 63.5502Z"></path>
<path fill="#E40B2C" d="M0 32.4159C0 31.9536 0 31.492 0 31.0298C0.0644539 30.9967 0.117859 31.0089 0.160828 31.0679C0.304468 31.4957 0.304468 31.9236 0.163283 32.3514C0.122156 32.4067 0.0675231 32.4281 0 32.4159Z"></path>
<path fill="#E40B2C" d="M0 29.5372C0.206252 29.3666 0.0055248 29.0676 0.20257 28.8945C0.453633 29.2518 0.394703 29.5998 0.170035 29.9424C0.118472 29.9909 0.0619985 29.9982 0 29.9639C0 29.8214 0 29.6796 0 29.5372Z"></path>
<path fill="#E40B2C" d="M0.20257 34.5492C0.0055248 34.3755 0.206252 34.0772 0 33.9065C0 33.7641 0 33.6223 0 33.4799C0.0527908 33.4424 0.104354 33.4443 0.154689 33.4854C0.241241 33.5695 0.290963 33.6733 0.321042 33.788C0.35112 34.0526 0.423554 34.3239 0.20257 34.5492Z"></path>
<path fill="#E40B2C" d="M31.3938 0C31.6786 0 31.9634 0 32.2483 0C32.2826 0.0607708 32.2722 0.112943 32.217 0.156526C31.953 0.279909 31.6891 0.27991 31.4251 0.157141C31.3699 0.114172 31.3594 0.0613846 31.3938 0Z"></path>
<path fill="#E40B2C" d="M33.9567 0C33.9573 0.0300785 33.9592 0.0595407 33.9622 0.0896192C33.7443 0.303238 33.5006 0.266404 33.2502 0.163278C33.1894 0.120922 33.1759 0.0662954 33.209 0C33.4583 0 33.7075 0 33.9567 0Z"></path>
<path fill="#E40B2C" d="M0.0976014 31.0196C0.0644537 31.0165 0.03192 31.0202 0 31.0306C0 30.782 0 30.5328 0 30.2842C0.06384 30.2504 0.117245 30.2627 0.160214 30.321C0.265796 30.5653 0.298943 30.8029 0.0976014 31.0196Z"></path>
<path fill="#E40B2C" d="M0 32.4141C0.0313062 32.4251 0.063226 32.4282 0.0957599 32.4233C0.117245 32.4423 0.138116 32.4613 0.160214 32.4804C0.263954 32.7026 0.267023 32.9229 0.150392 33.1415C0.105581 33.1906 0.05586 33.1967 0 33.1605C0 32.9119 0 32.6627 0 32.4141Z"></path>
<path fill="#E40B2C" d="M29.6855 0.0902336C29.6892 0.0601552 29.6911 0.0300785 29.6905 0C29.9397 0 30.1889 0 30.4381 0C30.4713 0.0662954 30.4578 0.120315 30.397 0.162671C30.1465 0.266411 29.9028 0.303238 29.6855 0.0902336Z"></path>
<path fill="#E40B2C" d="M32.2577 0.0982139C32.254 0.0656801 32.2522 0.0331477 32.251 0C32.4646 0 32.6782 0 32.8918 0C32.9262 0.0626123 32.9145 0.1154 32.8575 0.157755C32.6457 0.255971 32.4419 0.278685 32.2577 0.0982139Z"></path>
<path fill="#E40B2C" d="M31.3981 0C31.3987 0.0337616 31.3969 0.067524 31.3932 0.100672C31.2415 0.254133 31.0715 0.240622 30.8941 0.155297C30.8395 0.112328 30.829 0.060157 30.864 0C31.0427 0 31.2201 0 31.3981 0Z"></path>
<path fill="#E40B2C" d="M30.8587 0C30.8556 0.0294646 30.8532 0.0583112 30.8507 0.0877758C30.7083 0.231416 30.5659 0.230802 30.4229 0.0877758C30.4253 0.0583112 30.4284 0.0294646 30.4314 0C30.5739 0 30.7163 0 30.8587 0Z"></path>
<path fill="#E40B2C" d="M32.8963 0.0951417C32.892 0.0638355 32.8901 0.03192 32.8907 0C32.9975 0 33.1044 0 33.2112 0C33.2161 0.0282369 33.2185 0.0558603 33.2198 0.0847111C33.1154 0.197659 33.0074 0.193971 32.8963 0.0951417Z"></path>
<path fill="#E40B2C" d="M0.107423 30.2814C0.07182 30.2814 0.0356031 30.2814 0 30.2807C0 30.1739 0 30.0677 0 29.9609C0.0386723 29.9616 0.0773446 29.9628 0.116017 29.9634C0.198272 30.0714 0.198272 30.1776 0.107423 30.2814Z"></path>
<path fill="#E40B2C" d="M0 33.1641C0.0313062 33.1684 0.0626123 33.1708 0.0939184 33.1702C0.196431 33.2727 0.195203 33.3783 0.101899 33.4857H0.0509494L0 33.4839C0 33.3771 0 33.2709 0 33.1641Z"></path>
<path fill="#E40B2C" d="M0.104799 30.2841C0.107255 30.1785 0.110324 30.0723 0.112779 29.9668C0.203628 29.6144 0.228796 29.2565 0.199946 28.895C0.621658 24.5686 1.78244 20.4552 3.90696 16.6524C8.56913 8.3078 15.5743 3.0146 24.8821 0.781423C26.456 0.403907 28.0612 0.193359 29.6793 0.0920745C29.9273 0.131974 30.1753 0.103735 30.4233 0.0896167C30.5657 0.0896167 30.7087 0.0896167 30.8511 0.0896167C31.0304 0.0939136 31.209 0.0982156 31.3883 0.102513C31.6768 0.101285 31.9653 0.100668 32.2544 0.0994403C32.4674 0.0982126 32.6804 0.0975958 32.8934 0.0963681C33.0014 0.092685 33.1089 0.0896206 33.2169 0.0859375C33.4649 0.106194 33.7129 0.131359 33.9615 0.0908456C42.2662 0.7139 49.3028 4.03358 55.0195 10.0714C59.2814 14.5727 61.9425 19.9169 63.0744 26.0056C63.6655 29.1859 63.7502 32.3902 63.3445 35.6031C62.4366 42.7955 59.4177 48.9776 54.3093 54.1075C49.765 58.6708 44.2962 61.5688 37.9638 62.8296C36.2143 63.1777 34.4458 63.3189 32.6718 63.438C32.1384 63.4085 31.6056 63.4005 31.0727 63.4441C30.9377 63.4392 30.8027 63.4337 30.6676 63.4287C30.3453 63.3244 30.0053 63.4515 29.6824 63.3545C21.8429 62.7529 15.0814 59.7377 9.48806 54.2217C4.78906 49.5877 1.84383 43.9925 0.62043 37.5017C0.436276 36.5239 0.32517 35.5368 0.200559 34.551C0.198104 34.2747 0.196262 33.9979 0.193807 33.7217C0.085156 33.2938 0.252122 32.8451 0.0949775 32.4209L0.09375 32.4246C0.0943638 31.9556 0.0949775 31.4872 0.0949775 31.0183C0.0980467 30.774 0.10173 30.529 0.104799 30.2841Z"></path>
<path fill="#313131" d="M80.562 18.5746C80.562 21.971 80.562 25.3545 80.562 28.7423C80.64 28.7362 80.6897 28.746 80.7008 28.7294C81.4908 27.5748 82.6184 26.9695 83.9652 26.7142C85.0603 26.5061 86.1603 26.4742 87.2536 26.6878C88.9104 27.0119 89.8643 28.0579 90.1289 29.7613C90.2332 30.431 90.2633 31.1038 90.2639 31.779C90.2663 34.6567 90.2663 37.5351 90.2633 40.4128C90.2627 40.8584 90.2878 41.3022 90.3554 41.7405C90.4751 42.5226 90.8182 42.8614 91.5837 42.9977C92.0987 43.0898 92.0987 43.0898 92.0465 43.7325C89.0368 43.5679 86.0222 43.552 82.9935 43.741C82.9824 43.6078 82.9726 43.5409 82.9726 43.4734C82.9714 43.0904 82.9689 43.0707 83.355 43.01C83.9542 42.9154 84.2414 42.5422 84.3556 41.9861C84.4452 41.5484 84.4655 41.1058 84.4655 40.6614C84.4661 37.2324 84.4655 33.8041 84.4667 30.3752C84.4667 30.0185 84.4434 29.6649 84.3532 29.3187C84.1745 28.6318 83.7277 28.2997 83.0107 28.2463C81.9168 28.1653 80.6277 29.0535 80.5872 30.3623C80.5811 30.5575 80.5706 30.7527 80.5706 30.9479C80.5694 34.1454 80.5682 37.3435 80.5719 40.5411C80.5725 41.0911 80.5743 41.6435 80.7345 42.1782C80.8616 42.6017 81.1311 42.8768 81.5718 42.9842C82.0519 43.1014 82.05 43.1082 82.0285 43.6637C79.0188 43.6637 76.0092 43.6637 72.9761 43.6637C72.9037 43.5796 72.9608 43.4507 72.943 43.3341C72.9111 43.1303 73.0081 43.0695 73.202 43.032C74.3634 42.808 74.6526 42.4753 74.7366 41.2992C74.7508 41.1046 74.7495 40.9088 74.7495 40.7136C74.7502 34.6021 74.7489 28.4913 74.7526 22.3798C74.7532 21.8973 74.7207 21.4204 74.6163 20.9514C74.4475 20.1908 74.0559 19.65 73.2002 19.5997C73.0964 19.5935 72.9675 19.6052 72.9553 19.4597C72.9411 19.2866 72.8939 19.1025 72.9933 18.9429C73.0467 18.8569 73.1566 18.8999 73.2401 18.9103C74.1621 19.0196 75.0878 18.992 76.0122 18.9742C77.4535 18.9459 78.8887 18.8367 80.3098 18.577C80.3754 18.5635 80.4466 18.5746 80.562 18.5746Z"></path>
<path fill="#313131" d="M121.002 38.2842C121.288 37.4113 121.538 36.6606 121.779 35.9068C122.168 34.6914 122.634 33.4981 122.863 32.2366C122.997 31.5006 123.079 30.7603 122.916 30.0145C122.781 29.392 122.502 28.8457 122.066 28.3823C121.727 28.0219 121.308 27.8071 120.818 27.7193C120.591 27.6788 120.53 27.5008 120.58 27.184C120.616 26.9594 120.764 27.0281 120.901 27.033C121.825 27.0668 122.749 27.1073 123.674 27.1245C124.58 27.1411 125.486 27.1061 126.389 27.0355C126.54 27.6045 126.539 27.6039 126.058 27.9096C125.583 28.2116 125.218 28.618 124.937 29.1023C124.615 29.6572 124.382 30.2514 124.176 30.8567C122.397 36.0768 120.688 41.3197 118.859 46.5227C118.694 46.9922 118.507 47.4508 118.282 47.8952C117.778 48.8884 116.95 49.4531 115.882 49.6606C114.619 49.9056 113.37 49.8233 112.148 49.3955C111.69 49.2352 111.278 48.9983 110.893 48.7073C109.885 47.948 109.828 46.67 110.14 45.8714C110.417 45.1624 110.982 44.7351 111.681 44.4951C112.542 44.1986 113.428 44.171 114.308 44.4086C115.217 44.6535 115.859 45.1771 116.02 46.1629C116.184 47.1746 115.807 47.9689 115.042 48.6048C114.798 48.8074 114.5 48.9259 114.129 49.1094C115.446 49.3138 116.529 49.1026 117.356 48.0941C117.793 47.5613 118.014 46.9241 118.221 46.2796C118.297 46.042 118.177 45.8646 118.092 45.6762C116.989 43.2349 115.883 40.7955 114.777 38.3554C113.465 35.4636 112.153 32.5718 110.839 29.6805C110.699 29.3742 110.549 29.0716 110.391 28.7745C110.112 28.2515 109.715 27.8697 109.118 27.7218C108.906 27.669 108.843 27.4695 108.892 27.1754C108.929 26.9495 109.083 27.0201 109.216 27.0293C111.437 27.1853 113.66 27.235 115.885 27.173C116.756 27.149 117.626 27.0791 118.495 27.0226C118.689 27.0097 118.842 26.9888 118.843 27.2675C118.845 27.6321 118.834 27.6874 118.557 27.7046C118.184 27.7273 117.809 27.7126 117.446 27.8218C116.952 27.9704 116.813 28.2085 116.951 28.6972C116.985 28.8162 117.037 28.9298 117.085 29.044C118.325 31.9874 119.565 34.9302 120.805 37.8729C120.845 37.9718 120.895 38.0651 121.002 38.2842Z"></path>
<path fill="#313131" d="M189.608 43.0793C189.667 43.2818 189.653 43.4721 189.615 43.7318C186.498 43.5544 183.379 43.5685 180.26 43.7342C180.242 43.6287 180.228 43.5789 180.227 43.5292C180.217 43.0854 180.218 43.0854 180.663 43.0075C181.493 42.8626 181.834 42.5256 181.953 41.6889C182 41.3562 182.015 41.0167 182.015 40.6797C182.019 34.5879 182.018 28.4955 182.016 22.4037C182.016 21.9427 181.988 21.4841 181.897 21.0281C181.734 20.2159 181.347 19.6518 180.441 19.5966C180.067 19.5739 180.263 19.2755 180.233 19.1006C180.197 18.8949 180.347 18.8956 180.508 18.9078C182.913 19.0877 185.304 18.9637 187.682 18.5641C187.715 18.5586 187.752 18.569 187.792 18.5727C187.881 18.7574 187.836 18.9557 187.836 19.1472C187.839 26.2697 187.839 33.3915 187.839 40.514C187.839 40.94 187.844 41.3648 187.93 41.7865C188.092 42.5692 188.392 42.8681 189.193 43.0062C189.332 43.0289 189.47 43.0547 189.608 43.0793Z"></path>
<path fill="#313131" d="M175.22 27.7125C173.783 28.0802 172.782 29.2907 172.776 30.756C172.761 34.0259 172.774 37.2953 172.777 40.5652C172.777 40.8316 172.798 41.095 172.854 41.3589C173.063 42.3472 173.518 42.7941 174.52 42.9623C174.713 42.9948 174.908 43.0274 175.102 43.0311C175.58 43.039 175.545 43.0581 175.545 43.4761C175.544 43.9046 175.214 43.7081 175.038 43.7057C174.025 43.6922 173.011 43.6332 171.998 43.6191C170.076 43.5927 168.154 43.5915 166.234 43.6965C166.003 43.7093 165.772 43.7136 165.541 43.7161C165.14 43.7204 165.091 43.6566 165.143 43.2545C165.159 43.1311 165.198 43.0556 165.329 43.0452C165.4 43.0396 165.471 43.0304 165.541 43.0182C166.454 42.8604 166.798 42.5087 166.898 41.5842C166.942 41.1791 166.956 40.769 166.957 40.3608C166.961 37.1977 166.962 34.0345 166.957 30.8714C166.956 30.2508 166.95 29.6289 166.804 29.0175C166.625 28.2705 166.227 27.761 165.405 27.7174C165.044 27.6984 165.163 27.4406 165.147 27.2515C165.127 27.0146 165.269 27.0189 165.456 27.0305C167.844 27.1791 170.221 27.0938 172.581 26.6806C172.629 26.672 172.682 26.6855 172.761 26.6898C172.761 27.3675 172.761 28.0403 172.761 28.7026C172.914 28.7653 172.934 28.6486 172.971 28.5872C173.795 27.238 175.053 26.6598 176.578 26.5603C176.791 26.5462 177.005 26.5493 177.218 26.5597C178.481 26.6199 179.361 27.3104 179.709 28.5191C179.95 29.3564 179.989 30.1992 179.72 31.0377C179.36 32.1611 178.401 32.8952 177.223 32.9578C176.616 32.9904 176.01 32.9713 175.439 32.7319C174.57 32.3673 174.103 31.7129 174.053 30.7652C173.989 29.5264 174.5 28.5658 175.466 27.8212C175.465 27.6032 175.338 27.6665 175.22 27.7125Z"></path>
<path fill="#313131" d="M192.184 43.9032C192.241 41.8812 192.308 39.8942 192.295 37.9047C192.292 37.4922 192.315 37.4947 192.707 37.5014C192.932 37.5057 192.958 37.6181 192.983 37.7961C193.09 38.5523 193.249 39.2982 193.506 40.0194C193.796 40.8285 194.182 41.5835 194.764 42.2262C195.334 42.8554 196.025 43.2519 196.879 43.352C197.316 43.403 197.733 43.3385 198.126 43.1556C198.709 42.8842 199.022 42.4208 199.054 41.7744C199.102 40.7904 198.83 39.9151 198.166 39.1742C197.549 38.4848 196.877 37.8495 196.202 37.2172C195.514 36.5733 194.823 35.9306 194.165 35.2566C193.324 34.3948 192.626 33.4341 192.393 32.2174C192.065 30.5024 192.503 29.0524 193.919 27.9567C195.069 27.0667 196.399 26.6578 197.827 26.5676C199.47 26.4639 201.048 26.7468 202.535 27.4798C203.158 27.7867 203.523 27.6265 203.72 26.9107C203.802 26.6112 203.939 26.5627 204.2 26.5688C204.423 26.5743 204.459 26.6707 204.448 26.8684C204.349 28.5718 204.34 30.2771 204.338 31.9823C204.337 32.4071 204.317 32.409 203.938 32.4053C203.735 32.4034 203.663 32.331 203.638 32.1321C203.549 31.4256 203.366 30.7411 203.118 30.0733C202.861 29.3815 202.494 28.7584 201.974 28.2323C201.213 27.462 200.276 27.2244 199.233 27.3994C198.418 27.5356 197.883 28.1568 197.83 28.9819C197.784 29.6823 197.98 30.3145 198.413 30.8725C198.852 31.4385 199.38 31.9105 199.943 32.3506C200.98 33.1615 202.009 33.9822 202.967 34.8858C203.329 35.2271 203.671 35.5899 204.004 35.9601C205.132 37.2154 205.363 38.699 205.029 40.2914C204.828 41.2496 204.24 41.9893 203.498 42.6043C202.381 43.5312 201.068 43.9965 199.641 44.1279C198.541 44.2292 197.438 44.2206 196.371 43.8443C196.035 43.7258 195.707 43.5945 195.396 43.4214C195.023 43.2145 194.637 43.0291 194.229 42.9045C193.606 42.7136 193.312 42.8523 193.018 43.4373C193.01 43.4533 193.001 43.468 192.993 43.484C192.764 43.9622 192.764 43.9622 192.184 43.9032Z"></path>
<path fill="#313131" d="M161.413 26.69C161.483 26.887 161.449 27.084 161.449 27.2774C161.452 31.648 161.45 36.0186 161.452 40.3892C161.452 40.8858 161.442 41.383 161.558 41.8735C161.722 42.5708 162.023 42.8667 162.733 42.995C162.803 43.0078 162.873 43.0299 162.943 43.0312C163.247 43.0361 163.26 43.0232 163.27 43.4854C163.276 43.785 163.077 43.7224 162.91 43.7168C161.95 43.6861 160.991 43.6389 160.031 43.6198C158.181 43.583 156.33 43.6149 154.482 43.7113C154.375 43.7168 154.268 43.7217 154.162 43.7187C154.014 43.7144 153.837 43.7837 153.82 43.5173C153.798 43.1601 153.826 43.0919 154.122 43.0367C154.245 43.014 154.369 42.9992 154.491 42.9735C155.006 42.8636 155.337 42.5616 155.486 42.0496C155.626 41.5641 155.634 41.0656 155.635 40.5709C155.643 37.2665 155.644 33.9616 155.635 30.6573C155.634 30.1085 155.617 29.5578 155.484 29.017C155.302 28.2706 154.905 27.763 154.083 27.7188C153.722 27.6997 153.844 27.4395 153.827 27.2516C153.806 27.0128 153.952 27.0214 154.137 27.0331C156.524 27.181 158.901 27.0963 161.261 26.6826C161.309 26.674 161.362 26.6869 161.413 26.69Z"></path>
<path fill="#313131" d="M158.393 18.544C158.913 18.5342 159.458 18.5955 159.988 18.7631C161.295 19.1756 161.943 20.0903 161.836 21.5598C161.744 22.8348 161.116 23.5548 159.873 23.8961C158.822 24.1846 157.762 24.1834 156.717 23.8808C154.985 23.3799 154.231 21.4082 155.161 19.8558C155.446 19.38 155.871 19.0737 156.377 18.8669C157.013 18.6072 157.679 18.5335 158.393 18.544Z"></path>
<path fill="#313131" d="M211.313 44.1805C210.814 44.1787 210.322 44.1369 209.842 43.9816C208.893 43.6741 208.324 43.0345 208.156 42.0523C208.084 41.6306 208.083 41.2015 208.154 40.7804C208.326 39.7528 208.928 39.096 209.929 38.8106C210.766 38.5724 211.615 38.5552 212.457 38.7535C214.021 39.1212 214.652 40.2255 214.486 41.8227C214.344 43.1781 213.472 43.9798 212.058 44.1375C211.811 44.1658 211.561 44.167 211.313 44.1805Z"></path>
<path fill="#313131" d="M221.013 44.1794C220.458 44.1843 219.913 44.1241 219.393 43.9203C218.613 43.614 218.11 43.0665 217.922 42.2359C217.81 41.7424 217.802 41.247 217.883 40.7572C218.051 39.7517 218.649 39.1035 219.625 38.8187C220.477 38.57 221.345 38.5529 222.205 38.7597C223.754 39.1329 224.363 40.228 224.215 41.794C224.084 43.169 223.194 43.9897 221.758 44.1395C221.511 44.1653 221.262 44.1671 221.013 44.1794Z"></path>
<path fill="#313131" d="M230.859 44.1726C230.446 44.1561 230.093 44.1561 229.741 44.0818C228.115 43.7386 227.532 42.6564 227.616 41.1881C227.702 39.6897 228.508 38.8911 230.013 38.6836C230.745 38.5823 231.466 38.6051 232.174 38.8089C233.313 39.1366 233.948 39.9586 233.991 41.1421C234.003 41.4785 234.013 41.8167 233.942 42.1488C233.701 43.2776 232.835 43.9971 231.544 44.1352C231.297 44.1616 231.048 44.1628 230.859 44.1726Z"></path>
<path fill="#313131" d="M175.228 27.7133C175.29 27.6488 175.369 27.62 175.455 27.6237C175.512 27.6261 175.607 27.5942 175.601 27.7028C175.597 27.7716 175.553 27.825 175.471 27.8232C175.426 27.7065 175.306 27.755 175.228 27.7133Z"></path>
<path fill="#E40B2C" d="M29.6855 63.3542C30.017 63.342 30.3497 63.3064 30.6708 63.4285C30.3387 63.4549 30.0041 63.5126 29.6855 63.3542Z"></path>
<path fill="#E40B2C" d="M0.0968194 32.4219C0.3043 32.6011 0.193807 32.8411 0.209153 33.0529C0.225113 33.2745 0.201787 33.4992 0.195649 33.7226C0.164343 33.6434 0.133036 33.5636 0.10173 33.4844C0.0992749 33.3795 0.0962054 33.2739 0.09375 33.1689C0.0949777 32.9197 0.0955917 32.6711 0.0968194 32.4219Z"></path>
<path fill="white" d="M23.1891 53.0588C23.3536 51.5027 23.0909 49.9705 23.0319 48.431C22.9828 47.1542 22.8466 45.8811 22.776 44.6049C22.6876 43.0095 22.6293 41.4123 22.5538 39.8157C22.5286 39.2822 22.663 38.7611 22.6385 38.224C22.5673 36.6629 22.4961 35.1019 22.4954 33.5385C22.4942 31.2102 22.6274 28.8898 22.8189 26.5707C22.9914 24.4799 22.9663 22.3837 22.9122 20.288C22.849 17.8553 22.8257 15.422 22.8644 12.9893C22.8705 12.5824 22.9454 12.1766 22.9663 11.7696C23.0277 10.5923 22.8834 9.46402 22.1517 8.48003C22.0676 8.36708 22.0044 8.23633 21.9491 8.10619C21.7865 7.72254 21.8847 7.57522 22.3119 7.60039C23.6697 7.68203 24.8293 8.18477 25.7089 9.24856C26.4087 10.0951 26.7654 11.087 26.9127 12.1625C27.0625 13.2576 27.0649 14.3453 26.9428 15.4515C26.804 16.7031 26.8949 17.9719 26.9501 19.2309C27.0385 21.237 27.0066 23.2443 27.0434 25.2503C27.0643 26.4111 26.9133 27.5504 26.7838 28.6946C26.6714 29.6854 26.6328 30.6786 26.6604 31.673C26.6874 32.6515 26.6248 33.6256 26.5849 34.601C26.5204 36.1841 26.6408 37.7587 26.758 39.3356C26.8722 40.8752 26.9649 42.4178 26.9108 43.9647C26.8765 44.9419 26.9722 45.9167 27.0023 46.8927C27.0213 47.5139 27.0342 48.1357 27.0262 48.757C27.0152 49.5758 26.7156 50.2701 26.1043 50.8354C25.3861 51.5002 24.6568 52.1503 23.8545 52.7126C23.6532 52.8538 23.4629 53.0207 23.1891 53.0588Z"></path>
<path fill="white" d="M41.2858 56.6856C40.4657 56.3007 39.723 55.8324 39.1693 55.1136C38.8771 54.7336 38.6015 54.3401 38.3369 53.9405C37.925 53.3181 37.5291 52.6858 37.0454 52.1131C36.6249 51.6159 36.5046 51.0045 36.4272 50.3826C36.2615 49.0438 36.0822 47.7063 35.9429 46.3644C35.7428 44.4375 35.6114 42.5052 35.7422 40.5666C35.7925 39.8165 35.7195 39.0719 35.6354 38.3335C35.4659 36.8418 35.5304 35.3532 35.6059 33.8634C35.6691 32.621 35.6832 31.3804 35.5973 30.138C35.5519 29.4824 35.4997 28.7955 35.6832 28.1749C36.0927 26.7931 35.8416 25.3985 35.8791 24.0136C35.93 22.1494 35.8471 20.2827 35.9048 18.4172C35.965 16.4732 36.2259 14.5629 36.9471 12.7367C37.4075 11.5691 38.0686 10.5207 38.8126 9.52011C38.9286 9.36419 39.0631 9.21748 39.2098 9.09042C39.5695 8.77797 39.8322 8.80007 40.0974 9.1917C40.4866 9.76626 40.6818 10.4053 40.6284 11.1051C40.6038 11.4243 40.5351 11.7349 40.4184 12.0369C39.8292 13.5641 39.5769 15.146 39.6162 16.7838C39.6947 20.0513 39.7469 23.3194 39.8199 26.5869C39.8531 28.0822 39.7174 29.5683 39.5977 31.0551C39.4633 32.7204 39.4461 34.3901 39.4044 36.0592C39.351 38.191 39.3319 40.3235 39.4179 42.4542C39.4965 44.4062 39.6303 46.3558 39.7886 48.3036C39.8734 49.3477 39.9452 50.3931 40.0287 51.4379C40.1588 53.0609 40.5099 54.6292 41.1956 56.1147C41.3134 56.3658 41.3061 56.3695 41.2858 56.6856Z"></path>
<path fill="#313131" d="M150.001 26.1786C150.342 26.1509 150.68 26.1785 151.01 26.2479C151.382 26.3259 151.706 26.5035 151.966 26.7918C152.58 27.4732 152.697 28.7062 152.216 29.4852C151.86 30.0615 151.177 30.3724 150.523 30.2577C149.834 30.1372 149.341 29.6593 149.167 28.9891C149.046 28.5221 149.103 28.0728 149.233 27.6248C149.301 27.3923 149.39 27.1648 149.493 26.8661C148.716 27.1785 148.115 27.6066 147.648 28.2284C147.524 28.3928 147.559 28.4911 147.674 28.6366C148.768 30.0245 148.856 31.5984 148.467 33.2362C148.222 34.2674 147.595 35.0468 146.704 35.617C145.666 36.2811 144.517 36.6275 143.306 36.7791C142.635 36.8632 141.96 36.9084 141.281 36.8758C140.78 36.8519 140.313 37.15 140.106 37.6073C139.72 38.4636 140.176 39.1968 141.133 39.2127C142.503 39.2354 143.873 39.2042 145.242 39.2459C146.529 39.2852 147.777 39.5401 148.966 40.0672C150.734 40.8511 151.406 42.3198 151.261 44.1717C151.134 45.7793 150.31 47.0087 149.01 47.9276C147.874 48.7305 146.592 49.2101 145.234 49.452C142.71 49.9019 140.175 49.9348 137.645 49.4793C136.962 49.3566 136.297 49.1657 135.668 48.8631C135.346 48.7084 135.04 48.531 134.776 48.2879C134.033 47.6012 133.93 46.6766 134.508 45.8407C134.85 45.3466 135.314 44.9927 135.842 44.7196C136.413 44.4243 137.026 44.2424 137.641 44.0662C137.842 44.0085 137.97 44.0535 138.081 44.2401C138.19 44.4229 138.251 44.56 138.084 44.7557C137.831 45.0534 137.64 45.3934 137.521 45.7733C137.142 46.9783 137.553 48.0106 138.664 48.6121C139.17 48.8865 139.717 49.0444 140.281 49.1248C141.327 49.2739 142.373 49.2856 143.411 49.0536C143.972 48.9283 144.498 48.7202 144.965 48.3827C145.702 47.8492 146.1 47.1264 146.135 46.2137C146.173 45.2153 145.602 44.4231 144.641 44.1444C144.177 44.01 143.702 43.9413 143.22 43.9364C142.419 43.929 141.618 43.9356 140.817 43.9276C139.976 43.9196 139.148 43.8141 138.365 43.4881C136.372 42.6569 135.823 40.4084 137.209 38.7401C137.751 38.0876 138.46 37.6396 139.18 37.2118C139.404 37.0792 139.631 36.9537 139.939 36.7782C139.6 36.6996 139.348 36.6399 139.095 36.5829C138.486 36.4453 137.909 36.2233 137.347 35.952C135.695 35.1552 134.882 33.8204 134.787 32.0194C134.757 31.4492 134.818 30.8859 134.947 30.328C135.212 29.1932 135.856 28.34 136.846 27.7391C137.738 27.1965 138.712 26.8722 139.739 26.7108C141.483 26.4365 143.213 26.4922 144.916 26.9881C145.532 27.1674 146.122 27.4192 146.656 27.7752C146.88 27.9243 146.99 27.9039 147.167 27.6942C147.907 26.8195 148.835 26.2725 150.001 26.1786ZM141.745 27.1639C141.303 27.1541 141.092 27.4681 140.914 27.8094C140.774 28.0787 140.679 28.3652 140.631 28.6639C140.317 30.5889 140.351 32.5192 140.57 34.4491C140.623 34.9063 140.74 35.357 140.983 35.7596C141.408 36.4618 142.06 36.4541 142.48 35.7411C142.624 35.4949 142.716 35.2271 142.783 34.9491C143.038 33.8854 143.009 32.8004 142.978 31.7196C142.978 31.0634 143.007 30.4048 142.97 29.7498C142.932 29.0962 142.852 28.4398 142.557 27.8377C142.389 27.4942 142.184 27.1733 141.745 27.1639Z"></path>
<path fill="#313131" d="M100.214 26.7746C101.531 26.4941 102.86 26.4376 104.183 26.7531C106.165 27.2251 107.479 28.4155 108.063 30.3791C108.359 31.3735 108.448 32.3986 108.493 33.4298C108.504 33.7057 108.418 33.7965 108.135 33.7941C106.855 33.7812 105.573 33.7882 104.292 33.7882C103.029 33.7882 101.766 33.7933 100.502 33.7853C100.278 33.7841 100.136 33.8016 100.136 34.0861C100.14 35.2229 100.116 36.3602 100.38 37.4787C100.508 38.0181 100.706 38.5274 100.991 39.0031C101.757 40.2842 103.12 40.8496 104.594 40.5832C105.816 40.3628 106.783 39.7874 107.511 38.7931C107.636 38.6226 107.739 38.443 108.024 38.588C108.221 38.6887 108.288 38.7509 108.206 38.9777C107.571 40.7241 106.611 42.2237 105.015 43.2531C104.175 43.7951 103.251 44.0776 102.258 44.1476C100.911 44.2421 99.5952 44.0992 98.3325 43.5959C96.3887 42.8206 95.2302 41.3385 94.6157 39.3996C94.0774 37.6992 94.0096 35.9443 94.1323 34.1789C94.1882 33.381 94.3109 32.5905 94.5552 31.8263C95.4489 29.0364 97.3704 27.3804 100.214 26.7746ZM102.874 27.7023C102.529 27.2663 102.078 27.1913 101.601 27.4826C101.383 27.6151 101.222 27.8023 101.085 28.0129C100.862 28.3578 100.706 28.734 100.594 29.1281C100.247 30.3478 100.152 31.604 100.06 32.8605C100.043 33.0911 100.117 33.1723 100.351 33.1662C100.867 33.1527 101.382 33.1613 101.898 33.1613C102.165 33.1613 102.431 33.1679 102.698 33.1593C103.033 33.1489 103.458 33.2983 103.68 33.1017C103.936 32.8734 103.778 32.429 103.763 32.0822C103.713 30.8951 103.652 29.707 103.283 28.5617C103.185 28.2567 103.074 27.957 102.874 27.7023Z"></path>
</svg>
