<?xml version="1.0" encoding="UTF-8"?>
<svg width="103px" height="60px" viewBox="0 0 103 60" version="1.1" xmlns="http://www.w3.org/2000/svg" xmlns:xlink="http://www.w3.org/1999/xlink">
    <title>Group 28</title>
    <defs>
        <polygon id="path-1" points="0.187153423 0.0990014253 27.127505 0.0990014253 27.127505 17.7096712 0.187153423 17.7096712"></polygon>
    </defs>
    <g id="Symbols" stroke="none" stroke-width="1" fill="none" fill-rule="evenodd">
        <g id="Nav" transform="translate(-112.000000, -70.000000)">
            <g id="Group-28" transform="translate(112.000000, 70.000000)">
                <path d="M97.7114264,27.5313893 C97.654669,27.3665597 97.4994286,27.2911424 97.0083089,27.440422 C95.681638,27.843166 93.9812497,28.1614219 91.8306899,28.1772311 C86.5628811,28.2150693 78.7612059,26.3291181 69.8337135,19.3699917 C66.7519702,16.9677817 63.8495698,14.1698252 60.9634968,11.4638726 C60.01158,11.8894233 59.0062749,12.3600688 57.9413617,12.8732175 C60.7572006,15.1689103 64.0042919,17.7906339 67.9298798,20.5854804 C77.0978783,27.1120587 84.9088834,28.937365 90.7821041,28.937365 C93.4204144,28.937365 95.6463914,28.5900826 97.2133093,28.0536089 C97.6836956,27.8924076 97.7642963,27.6840381 97.7114264,27.5313893" id="Fill-1" fill="#01B0B5"></path>
                <path d="M48.3711893,55.6879908 C47.5060931,56.3771132 46.4173366,56.8088839 45.292556,56.8088839 C44.32483,56.8088839 43.4602521,56.5157671 42.8983802,55.8691478 C42.3173299,55.2007586 42.0509072,54.3351441 42.0509072,52.8703376 L42.0509072,29.5238837 C42.0503889,29.2610893 41.961495,29.0729348 41.8189536,28.9674542 C41.6536057,28.8451279 41.4232071,28.8674161 41.1860702,28.9594201 C40.7895462,29.113883 39.7168579,29.5168862 39.0378429,29.7864189 C38.6400231,29.9437327 38.4938534,30.2060087 38.4938534,30.6432218 L38.4938534,53.0846679 C38.4998142,55.3407083 38.8953016,56.6461276 40.0125664,57.7496566 C40.970444,58.6950943 42.4098522,59.2497096 44.0768081,59.2497096 C46.4220016,59.2497096 48.6155829,58.0251501 49.1714941,55.9634842 C49.2505397,55.671145 49.199484,55.449558 49.0483902,55.385544 C48.8960006,55.3204933 48.7423151,55.3925415 48.3711893,55.6879908" id="Fill-3" fill="#1D2F56"></path>
                <path d="M30.91291,55.6879908 C30.0478138,56.3771132 28.9590572,56.8088839 27.8340175,56.8088839 C26.8665507,56.8088839 26.002232,56.5157671 25.4401008,55.8691478 C24.8590506,55.2007586 24.5926279,54.3351441 24.5926279,52.8703376 L24.5926279,29.5238837 C24.5921096,29.2610893 24.5032156,29.0729348 24.3606743,28.9674542 C24.1953264,28.8451279 23.9646686,28.8674161 23.7277908,28.9594201 C23.3312668,29.113883 22.2585786,29.5168862 21.5795636,29.7864189 C21.1817437,29.9437327 21.0355741,30.2060087 21.0355741,30.6432218 L21.0355741,53.0846679 C21.0415349,55.3407083 21.4370222,56.6461276 22.554287,57.7496566 C23.5121647,58.6950943 24.9515728,59.2497096 26.6185288,59.2497096 C28.9637222,59.2497096 31.1573036,58.0251501 31.7132147,55.9634842 C31.7922603,55.671145 31.7412046,55.449558 31.5901108,55.385544 C31.4377212,55.3204933 31.2837766,55.3925415 30.91291,55.6879908" id="Fill-5" fill="#1D2F56"></path>
                <path d="M9.92919505,55.6879908 C9.06409882,56.3771132 7.97534231,56.8088839 6.85030255,56.8088839 C5.88283574,56.8088839 5.01825785,56.5157671 4.45638589,55.8691478 C3.87533564,55.2007586 3.60891295,54.3351441 3.60891295,52.8703376 L3.60891295,29.5238837 C3.60839462,29.2610893 3.51950067,29.0729348 3.37695935,28.9674542 C3.21161142,28.8451279 2.98121282,28.8674161 2.74407589,28.9594201 C2.34755186,29.113883 1.24143122,29.5168862 0.552049571,29.7864189 C0.148528055,29.9437327 2.59166035e-05,30.2060087 2.59166035e-05,30.6432218 L2.59166035e-05,53.0846679 C0.00598673541,55.3407083 0.407434924,56.6461276 1.54076799,57.7496566 C2.51264063,58.6950943 3.96785791,59.2497096 5.63481385,59.2497096 C7.9800073,59.2497096 10.1735886,58.0251501 10.7294998,55.9634842 C10.8085454,55.671145 10.7574897,55.449558 10.6063959,55.385544 C10.4540063,55.3204933 10.3003208,55.3925415 9.92919505,55.6879908" id="Fill-7" fill="#1D2F56"></path>
                <path d="M100.825721,56.8780034 C100.883515,56.8925167 100.958932,56.8964042 101.022687,56.8964042 C101.191404,56.8958859 101.357011,56.8238377 101.356237,56.6022508 C101.354938,56.3915488 101.220431,56.3055057 100.957118,56.3060217 L100.823129,56.3065423 L100.825721,56.8780034 Z M101.281594,57.6080742 C101.193218,57.4958553 101.111322,57.3636806 101.040051,57.2224351 C100.964116,57.2180293 100.887921,57.2092176 100.825721,57.1900393 L100.828572,57.7806787 L100.492693,57.7817154 C100.432825,57.7817154 100.412869,57.7581313 100.412869,57.7140731 L100.408204,55.9862131 L101.075039,55.9849124 C101.50966,55.9836215 101.780748,56.24201 101.781525,56.6009549 C101.781525,56.8611576 101.641057,57.055273 101.426209,57.1550519 C101.488409,57.2589775 101.548276,57.3527956 101.621361,57.4243254 C101.676822,57.4857478 101.735912,57.5088136 101.790337,57.5080361 L101.842688,57.5080361 C101.856943,57.5368035 101.867568,57.6070375 101.867568,57.6440982 C101.867568,57.7257355 101.758719,57.8052995 101.612549,57.8058207 C101.489964,57.8063362 101.378004,57.7366205 101.281594,57.6080742 L101.281594,57.6080742 Z M101.071151,58.3606961 C101.869123,58.358619 102.515224,57.7086306 102.513672,56.8925167 C102.5103,56.0841779 101.861608,55.4290061 101.063376,55.4315901 C100.265663,55.433412 99.6187848,56.092212 99.6205951,56.9002917 C99.6234497,57.7156281 100.272661,58.3625065 101.071151,58.3606961 L101.071151,58.3606961 Z M101.062599,55.076017 C102.069459,55.0736895 102.884536,55.8853975 102.886623,56.8919984 C102.890497,57.8970443 102.079048,58.714454 101.071929,58.7173087 C100.064291,58.7193781 99.2518056,57.9068926 99.2481733,56.90081 C99.246104,55.8949867 100.054702,55.0788728 101.062599,55.076017 L101.062599,55.076017 Z" id="Fill-9" fill="#1D2F56"></path>
                <g id="Group-13" transform="translate(30.322426, 0.160165)">
                    <mask id="mask-2" fill="white">
                        <use xlink:href="#path-1"></use>
                    </mask>
                    <g id="Clip-12"></g>
                    <path d="M17.9017124,1.69162854 C12.6121337,-0.723798902 7.18182774,-0.276478326 3.8080043,2.25375967 C1.46618001,4.00986873 0.164389016,6.31929726 0.187454793,9.50600283 C0.208706408,12.3415384 1.57736224,15.4178393 3.92462902,17.4349285 C4.2581757,17.727527 4.51604591,17.7625144 4.62722814,17.6513321 C4.73841037,17.5396316 4.65366307,17.3400737 4.44036943,17.1210784 C2.61298971,15.1765557 1.65148372,13.1319948 1.66392369,10.6191209 C1.6761045,8.12749869 2.70654865,6.0969328 4.85062926,4.7731127 C7.2813475,3.27228219 11.2411453,2.82599828 16.0390862,4.71428201 C18.4309295,5.65531388 20.9492459,7.37617635 23.813808,9.63377168 C25.0051943,9.05634976 26.1069091,8.54164601 27.127505,8.08966045 C24.1616089,5.47959931 21.1443979,3.1722441 17.9017124,1.69162854" id="Fill-11" fill="#01B0B5" mask="url(#mask-2)"></path>
                </g>
                <path d="M76.037656,9.61918064 C75.4050317,7.01819031 72.8623537,5.26104459 68.6446857,5.26104459 C65.5756415,5.26104459 62.4456933,6.03646937 57.4494905,8.24974731 C56.4296721,8.70173287 55.3276981,9.21643662 54.1360527,9.79385854 C52.6769479,10.501641 51.0810035,11.3053149 49.3137503,12.220171 C34.3497626,19.9669029 22.9314254,23.502446 14.693833,23.502446 C8.28284281,23.502446 3.47660869,22.2418624 1.66607477,19.2497905 C0.982913104,18.1213816 1.18039762,17.0077451 1.78347699,16.3818592 C1.99495647,16.163123 2.08747874,15.9708218 1.98640399,15.8500504 C1.86615095,15.7054358 1.58702913,15.8132489 1.36518301,15.9959609 C0.530927539,16.6830101 0.222260792,18.1631073 0.832078472,19.5708972 C2.48400278,23.3845254 8.88281218,25.6462674 15.4905094,25.6462674 C22.4120567,25.6462674 29.7594138,24.2794257 38.3678728,21.0240412 C42.4813561,23.8655376 47.4257257,25.4239029 52.5121183,25.4588904 C57.8162104,25.4956919 63.4782108,23.7836411 66.8668067,21.451406 C67.2501132,21.1878341 67.2343041,20.9939779 67.1873951,20.9118223 C67.1241585,20.8024542 66.9668448,20.7451785 66.5799099,20.9310006 C63.3123445,22.5072484 58.7004849,23.8059294 53.9183532,23.8424718 C48.8143373,23.8813467 43.7821104,22.7824827 39.4216419,20.6181872 C43.0383039,19.2028814 46.8775896,17.4594715 51.0009212,15.3485642 C60.294356,10.5902758 66.0097446,7.93226891 70.2266351,7.93226891 C72.8976003,7.93226891 74.2574445,8.78881266 74.654746,10.2518049 C75.3596776,12.8465753 72.9662793,16.660981 69.5569501,19.1526032 C69.6492132,19.2254289 69.7412172,19.2979954 69.8337394,19.3700435 C69.9332592,19.4475342 70.032779,19.5247657 70.132817,19.6012196 C75.0116177,16.3295076 76.6625053,12.1880344 76.037656,9.61918064" id="Fill-14" fill="#1D2F56"></path>
                <path d="M16.3196334,32.1604316 C16.6923141,33.0706227 16.1890137,34.0881086 15.0852256,34.5406125 C14.0112415,34.9806764 12.8931992,34.5857074 12.5355501,33.7115403 C12.1620919,32.8008309 12.6653923,31.7841225 13.7699579,31.3316186 C14.8431645,30.8918139 15.9614659,31.2860054 16.3196334,32.1604316" id="Fill-16" fill="#1D2F56"></path>
                <path d="M15.9225392,36.7141862 C15.7460471,36.5918598 15.5426018,36.6141481 15.3054649,36.706152 C14.9089408,36.8608741 13.8365118,37.2636182 13.1574968,37.53341 C12.7596769,37.6904646 12.6132481,37.9529998 12.6132481,38.3899538 L12.6132481,55.7167582 C12.6132481,57.0478349 12.7747085,57.6716476 13.2878573,58.2042338 C13.7579845,58.6922434 14.4927202,58.939747 15.7284238,58.8930971 C15.9741132,58.883508 16.1705611,58.7611816 16.1705611,58.4271166 L16.1705611,37.2706156 C16.1700428,37.0078213 16.0746696,36.8196667 15.9225392,36.7141862" id="Fill-18" fill="#1D2F56"></path>
                <path d="M60.6291726,56.7400753 C62.663626,56.7400753 64.2460938,56.2152641 65.610603,55.1848199 C66.0874685,54.8240608 66.2743272,54.7704134 66.4168685,54.8219874 C66.6052822,54.8888523 66.6068372,55.1516466 66.511205,55.4395801 C65.7596235,57.7109112 62.8865088,59.2498392 59.7500814,59.2498392 C53.7161778,59.2498392 49.8385356,55.7085945 49.8385356,48.4887471 C49.8385356,41.0320219 54.7183729,36.9602643 59.7174265,36.9602643 C64.2162897,36.9602643 66.82661,39.8971338 66.82661,43.4899526 C66.82661,47.812842 63.8070665,50.3785858 59.1197896,50.3785858 C57.1343186,50.3785858 55.1659526,49.6228576 54.4801993,48.7795313 C54.2850473,48.5385069 54.2772723,48.3493157 54.3638337,48.2345052 C54.4402877,48.1334304 54.5893082,48.120213 54.8531392,48.154682 C60.3303542,48.8671295 63.6754102,46.7531121 63.6754102,43.3373038 C63.6754102,41.1113267 62.1862422,39.6234545 59.8166871,39.6234545 C56.4016563,39.6234545 53.3821128,42.7158236 53.3821128,48.4216231 C53.3821128,54.0929534 56.4050254,56.7400753 60.6291726,56.7400753" id="Fill-20" fill="#1D2F56"></path>
                <path d="M28.7937611,46.7178915 C28.382983,46.7064881 28.2020851,46.7920129 28.1290003,46.9874241 C28.0499546,47.1983853 28.1564719,47.5762494 28.4016429,47.8234938 C29.200911,48.6315735 30.5594593,48.8770037 32.0214149,48.5170221 C33.8604571,48.0647773 35.4564016,46.8200029 36.1330841,45.5008478 C36.4344942,44.9130592 36.1369716,44.6455998 35.6593286,44.9312008 C33.3032502,46.3397682 31.4468438,46.7912354 28.7937611,46.7178915" id="Fill-22" fill="#1D2F56"></path>
                <path d="M81.59783,55.3852848 C81.4454404,55.3207525 81.2914958,55.3925415 80.9208883,55.6877316 C80.0555329,56.3771132 78.9670356,56.8088839 77.842255,56.8088839 C76.874529,56.8088839 76.0099511,56.5157671 75.4480792,55.8691478 C74.8667698,55.2007586 74.6003471,54.3348849 74.6003471,52.8700785 L74.6003471,40.1486545 C77.0466153,39.4914094 79.070702,37.9568873 79.9964431,36.4265119 C80.1928909,36.1017768 80.2250275,35.8783757 80.0933712,35.755531 C79.947979,35.619728 79.760602,35.7026611 79.3601905,35.9086981 C77.7245936,36.7491736 76.1646733,37.3237447 74.6003471,37.6915013 L74.6003471,29.5238837 C74.5998287,29.2610893 74.5109348,29.0726756 74.3683935,28.9674542 C74.2033047,28.8448687 73.9726469,28.867157 73.73551,28.9594201 C73.3392451,29.113883 72.2662978,29.5168862 71.5872827,29.7864189 C71.1897221,29.9437327 71.0432932,30.2060087 71.0432932,30.6432218 L71.0432932,38.1909142 C70.4036715,38.2246058 69.7534239,38.2318625 69.0884038,38.2163125 C68.5306785,38.203095 68.3132382,38.276439 68.2303051,38.5107251 C68.1600711,38.7084688 68.2886175,39.1570852 68.6208683,39.4255812 C69.1967352,39.8907843 70.0478365,40.2287368 71.0432932,40.3806081 L71.0432932,53.0849271 C71.0492541,55.3404491 71.4447414,56.6461276 72.5622654,57.7493974 C73.5198839,58.6953534 74.9595512,59.2499687 76.626248,59.2499687 C78.9714414,59.2499687 81.1650227,58.0254092 81.7214522,55.9634842 C81.8002387,55.671145 81.7489238,55.4498172 81.59783,55.3852848" id="Fill-24" fill="#1D2F56"></path>
                <path d="M96.296639,41.0420516 C94.6180206,40.0522965 92.8222592,39.4945712 90.8424898,39.4945712 C88.502998,39.4945712 86.9104227,40.7237957 86.9104227,42.4812006 C86.9104227,43.1203041 87.1802146,43.6725869 87.5884011,44.0823284 C88.3721192,44.8686381 89.7596941,45.3465403 91.6534203,46.0574327 C94.5519333,47.1451526 95.5761574,47.7049512 96.5669492,48.6960021 C97.745118,49.8741709 98.1750744,51.196436 98.1750744,52.7944538 C98.1750744,56.5295547 95.2151392,59.2461331 90.6294553,59.2461331 C88.2982568,59.2461331 86.5595119,58.791815 84.9770441,57.7473759 C83.842156,56.9983861 83.0809854,55.8406914 82.8549926,54.8986228 C82.7767245,54.5720736 82.7997903,54.3486725 83.0169714,54.2794752 C83.1543294,54.2361945 83.3069782,54.2812894 83.6796589,54.5544504 C85.5142953,55.8956346 87.5534137,56.492494 89.8053073,56.492494 C92.4389526,56.492494 94.4775526,55.2316512 94.4775526,53.1394038 C94.4775526,52.153277 94.1595559,51.3972897 93.2592131,50.7415996 C92.3394328,50.0711371 91.3701519,49.7412188 89.5782779,49.078272 C86.8254163,48.0587129 85.5109261,47.3654437 84.5377577,46.237294 C83.862371,45.4540942 83.3976863,44.3601544 83.3976863,43.0980158 C83.3976863,41.2750419 83.9567074,39.7480356 85.4033722,38.5330652 C86.786023,37.3725197 88.581007,36.8510777 90.5299356,36.8510777 C93.8892457,36.8510777 96.4047113,38.5294369 97.0785429,40.6325693 C97.1674369,40.9103953 97.1860968,41.1713755 96.9629549,41.2646752 C96.8279294,41.3216918 96.6053058,41.2242453 96.296639,41.0420516" id="Fill-26" fill="#1D2F56"></path>
            </g>
        </g>
    </g>
</svg>